<?xml version="1.0" encoding="utf-8"?>
<!-- Generator: Adobe Illustrator 23.0.5, SVG Export Plug-In . SVG Version: 6.00 Build 0)  -->
<svg version="1.1" id="Layer_1" xmlns="http://www.w3.org/2000/svg" xmlns:xlink="http://www.w3.org/1999/xlink" x="0px" y="0px"
	 viewBox="0 0 106 38.7" style="enable-background:new 0 0 106 38.7;" xml:space="preserve">
<style type="text/css">
	.st0{fill:#F05323;}
</style>
<g>
	<rect x="0" y="0.9" width="5.3" height="36.9"/>
	<polygon points="37.8,0.9 28.4,22.6 31.1,28.9 43.5,0.9 	"/>
	<polygon points="26.8,26.2 15.8,0.9 10.1,0.9 26.8,38.6 29.5,32.5 26.8,26.2 	"/>
	<polygon points="39.8,37.8 45.5,37.8 49.1,29.9 49.1,29.9 57.4,11.7 65.6,29.9 65.7,29.9 69.2,37.8 74.9,37.8 57.4,0 	"/>
	<path d="M92.8,16.3c-5.8-1.2-8.3-2.5-8.3-5.3c0-3.3,2.9-5.2,7.9-5.2c4.6,0,7.6,2,9.5,3.9l2.5-4.8C99.8,0.6,94,0.5,92.4,0.5
		c-8.6,0-13.3,4.7-13.3,10.7c0,4.9,2.9,8.6,13.2,10.4c5,0.9,8.4,2.7,8.4,5.7c0,3.5-3,5.8-8.6,5.8c-4.3,0-8.6-2-11.6-5.4l-2.6,4.7
		c0.5,0.7,5.3,6,14.2,6c8.6,0,13.9-4.8,13.9-11.2C106,20.8,101.6,18,92.8,16.3"/>
	<polygon class="st0" points="64.4,37.8 50.3,37.8 57.4,22.6 	"/>
</g>
</svg>
